<svg xmlns="http://www.w3.org/2000/svg" width="29.471" height="29.471" viewBox="0 0 29.471 29.471">
  <path id="check-circle" d="M24.636,11.627a1.2,1.2,0,0,0-.345-.882L22.544,9.018a1.206,1.206,0,0,0-1.727,0l-7.828,7.809L8.653,12.491a1.206,1.206,0,0,0-1.727,0L5.179,14.217a1.2,1.2,0,0,0-.345.882,1.172,1.172,0,0,0,.345.864l6.945,6.945a1.18,1.18,0,0,0,.864.364,1.2,1.2,0,0,0,.882-.364L24.29,12.49a1.172,1.172,0,0,0,.345-.864Zm4.835,3.108a14.415,14.415,0,0,1-1.976,7.4,14.667,14.667,0,0,1-5.363,5.363,14.415,14.415,0,0,1-7.4,1.976,14.415,14.415,0,0,1-7.4-1.976,14.667,14.667,0,0,1-5.363-5.363A14.415,14.415,0,0,1,0,14.735a14.415,14.415,0,0,1,1.976-7.4A14.667,14.667,0,0,1,7.339,1.976,14.415,14.415,0,0,1,14.735,0a14.416,14.416,0,0,1,7.4,1.976,14.667,14.667,0,0,1,5.363,5.363A14.415,14.415,0,0,1,29.471,14.735Z" fill="#407c1e"/>
</svg>
