<svg xmlns="http://www.w3.org/2000/svg" width="25.684" height="25.283" viewBox="0 0 25.684 25.283">
  <g id="Group_1464" data-name="Group 1464" transform="translate(-800.658 -1107.331)">
    <g id="Group_1463" data-name="Group 1463">
      <path id="Path_354" data-name="Path 354" d="M25.283,3.465a.4.4,0,1,0,0-.8h-3.03A.781.781,0,0,0,21.47,2H17.056a.781.781,0,0,0-.783.662H11.979a1.207,1.207,0,0,0-1.2,1.2V8.22h-.14a.4.4,0,0,0-.4.4v.8h-.8a.4.4,0,0,0-.4.4v.161H6.2a.712.712,0,0,0-.7-.562H2.93a.712.712,0,0,0-.7.562H.4a.4.4,0,1,0,0,.8H2.207v.8H.4a.4.4,0,0,0,0,.8H2.207a.715.715,0,0,0,.7.642H5.5a.715.715,0,0,0,.7-.642H9.01v.241a.4.4,0,0,0,.4.4h.8v.8a.4.4,0,0,0,.4.4h.14v2.95H9.17a.8.8,0,0,0-.763-.542H4.013a.822.822,0,0,0-.763.542H.4a.4.4,0,0,0,0,.8H3.211v.8H.441a.4.4,0,1,0,0,.8H3.231a.8.8,0,0,0,.783.662H8.428A.781.781,0,0,0,9.21,19.6h2.749a1.207,1.207,0,0,0,1.2-1.2V14.24h.281a.4.4,0,0,0,.4-.4v-.8h.8a.4.4,0,0,0,.4-.4v-.241h3.01v4.274a.8.8,0,0,0-.6.783v4.414a.818.818,0,0,0,.6.783v4.234a.4.4,0,1,0,.8,0V22.668h.8v4.214a.4.4,0,1,0,.8,0V22.648a.8.8,0,0,0,.6-.783V17.451a.818.818,0,0,0-.6-.783V11.19a1.207,1.207,0,0,0-1.2-1.2H15.049V9.826a.4.4,0,0,0-.4-.4h-.8v-.8a.4.4,0,0,0-.4-.4h-.261V5.07h3.13a.8.8,0,0,0,.763.542H21.49a.822.822,0,0,0,.763-.542h3.03a.4.4,0,1,0,0-.8h-3.01v-.8ZM5.418,12.234H3.01V10.227H5.418Zm3.612-.642H6.22v-.8H9.03Zm-.6,7.866H4.013V17.451H8.428Zm11.839-2.007v4.414H18.26V17.451Zm-5.217-6.662h4.214a.4.4,0,0,1,.4.4v5.458h-.8V11.993a.4.4,0,0,0-.4-.4H15.049Zm-2.669,7.6a.4.4,0,0,1-.4.4H9.23v-.8h1.946a.4.4,0,0,0,.4-.4V14.24h.8Zm1.063-8.167h.8v2.007h-.8a.4.4,0,0,0-.4.4v.8H11.036v-.8a.4.4,0,0,0-.4-.4h-.8V10.227h.8a.4.4,0,0,0,.4-.4v-.8h2.007v.8A.4.4,0,0,0,13.444,10.227Zm2.809-5.96H12.782a.4.4,0,0,0-.4.4V8.22h-.8V3.866a.4.4,0,0,1,.4-.4h4.274Zm5.217.542H17.056V2.8H21.47Z" transform="translate(800.658 1105.331)" fill="#407c1e"/>
      <path id="Path_414" data-name="Path 414" d="M5953.369,1107.842h5.077v2.7h-4.97Z" transform="translate(-5136)" fill="#407c1e"/>
      <path id="Path_415" data-name="Path 415" d="M5953.369,1107.842h5.077v2.644h-4.97Z" transform="translate(-5149 14.715)" fill="#407c1e"/>
      <path id="Path_416" data-name="Path 416" d="M5953.369,1107.842h3.1v2.624h-3.032Z" transform="translate(-5149.913 7.472)" fill="#407c1e"/>
      <path id="Path_417" data-name="Path 417" d="M5953.369,1107.842h5.054v2.624h-4.946Z" transform="translate(-5143.187 7.472)" fill="#407c1e"/>
      <path id="Path_418" data-name="Path 418" d="M5953.369,1107.842h5.054v2.624h-4.946Z" transform="translate(1921.863 -4839.27) rotate(90)" fill="#407c1e"/>
      <path id="Path_419" data-name="Path 419" d="M5953.37,1107.842h5.134v2.624h-5.025Z" transform="translate(1929.061 -4831.016) rotate(90)" fill="#407c1e"/>
    </g>
  </g>
</svg>
