<svg xmlns="http://www.w3.org/2000/svg" width="20.954" height="20.975" viewBox="0 0 20.954 20.975">
  <path id="__TEMP__SVG__" d="M17.741,8.042a7.838,7.838,0,0,1-2.967,1.064A3.6,3.6,0,0,1,12.4,8.839a.487.487,0,0,1-.133-.082q-.112-.082-.235-.153a.484.484,0,0,0-.245-.072v5.73a8.551,8.551,0,0,1,2.046-1.739A4.583,4.583,0,0,1,15.3,11.96a6.71,6.71,0,0,1,1.565-.154q.736.02,1.381.092a6.728,6.728,0,0,1,1.013.174l.389.082a3.482,3.482,0,0,1-.195.327q-.133.2-.542.767t-.839,1.074a11.5,11.5,0,0,1-1.074,1.095,8.658,8.658,0,0,1-1.279.972,10.378,10.378,0,0,1-3.929,1.678v1.6a1.275,1.275,0,0,1-.379.921,1.31,1.31,0,0,1-1.862,0,1.275,1.275,0,0,1-.379-.921V18.314a6.291,6.291,0,0,1-2.241-.184,8.644,8.644,0,0,1-2.364-.942,4.958,4.958,0,0,1-1.207-1.013,7.3,7.3,0,0,1-.931-1.289q-.358-.644-.624-1.258t-.379-.972q-.113-.358-.112-.379.164-.061.43-.133t1.034-.2A9.467,9.467,0,0,1,4.247,11.8a6.449,6.449,0,0,1,1.545.184,3.738,3.738,0,0,1,1.433.644A12.189,12.189,0,0,1,9.169,15.1V9.842a.481.481,0,0,0-.245.072q-.122.072-.235.153a1.4,1.4,0,0,0-.133.1,3.707,3.707,0,0,1-2.374.245A7.856,7.856,0,0,1,3.214,9.351,5.081,5.081,0,0,1,2.007,8.287,7.953,7.953,0,0,1,1.1,7a11.207,11.207,0,0,1-.614-1.32Q.206,4.973.123,4.706T0,4.3q.143-.041.4-.1t.992-.153a13.224,13.224,0,0,1,1.412-.1A7.068,7.068,0,0,1,4.328,4.1a4.6,4.6,0,0,1,1.484.563A8.975,8.975,0,0,1,8.012,6.5,4.929,4.929,0,0,1,9.168,8.533V5.238a1.264,1.264,0,0,1,.02-.164A5.533,5.533,0,0,1,7.53,4.338a4.412,4.412,0,0,1-1.289-1.5,7.724,7.724,0,0,1-.777-1.791L5.239.265q.1-.02.287-.072A6.415,6.415,0,0,1,6.232.071a7.377,7.377,0,0,1,1-.072A5.212,5.212,0,0,1,8.329.132a3.006,3.006,0,0,1,1.064.44,5.876,5.876,0,0,1,1.7,1.709,3.394,3.394,0,0,1,.7,1.647V7.223a4.934,4.934,0,0,1,1.156-2.036,8.958,8.958,0,0,1,2.2-1.831,4.583,4.583,0,0,1,1.463-.563,6.69,6.69,0,0,1,1.566-.153q.737.021,1.381.092a9.9,9.9,0,0,1,1.013.153l.389.1-.112.4q-.072.256-.358.972a12.1,12.1,0,0,1-.624,1.33,7.906,7.906,0,0,1-.911,1.289A5.1,5.1,0,0,1,17.741,8.042Z" transform="translate(0 0.001)" fill="#407c1e"/>
</svg>
