<svg xmlns="http://www.w3.org/2000/svg" width="20.988" height="20.974" viewBox="0 0 20.988 20.974">
  <g id="Group_1466" data-name="Group 1466" transform="translate(-404 -1108.013)">
    <g id="Group_1465" data-name="Group 1465">
      <path id="Path_345" data-name="Path 345" d="M24.371,21.748a1.5,1.5,0,1,1-1.5-1.5A1.5,1.5,0,0,1,24.371,21.748Z" transform="translate(395.372 1099.748)" fill="#407c1e"/>
      <path id="Path_346" data-name="Path 346" d="M16.5,12.748a1.5,1.5,0,1,1-1.5-1.5A1.5,1.5,0,0,1,16.5,12.748Z" transform="translate(398.004 1102.756)" fill="#407c1e"/>
      <path id="Path_420" data-name="Path 420" d="M20.242,14.621a3.371,3.371,0,1,1-3.371-3.371A3.371,3.371,0,0,1,20.242,14.621Z" transform="translate(390.5 1096.763)" fill="#407c1e"/>
      <path id="Path_421" data-name="Path 421" d="M22.262,15.631a4.381,4.381,0,1,1-4.381-4.381A4.381,4.381,0,0,1,22.262,15.631Z" transform="translate(391.262 1108.374)" fill="#407c1e"/>
      <path id="Path_347" data-name="Path 347" d="M33,21a.749.749,0,1,1-.749-.749A.749.749,0,0,1,33,21Z" transform="translate(391.989 1099.748)" fill="#407c1e"/>
      <path id="Path_422" data-name="Path 422" d="M35.371,22.186a1.936,1.936,0,1,1-1.936-1.936A1.936,1.936,0,0,1,35.371,22.186Z" transform="translate(379.601 1103.755)" fill="#407c1e"/>
      <path id="Path_348" data-name="Path 348" d="M28.5,31.118A2.622,2.622,0,1,1,31.119,28.5,2.622,2.622,0,0,1,28.5,31.118Zm0-3.745A1.124,1.124,0,1,0,29.621,28.5,1.124,1.124,0,0,0,28.5,27.373Z" transform="translate(393.869 1097.869)" fill="#407c1e"/>
      <path id="Path_349" data-name="Path 349" d="M11.24,28.487a2.965,2.965,0,0,1-1.593-.465A5.242,5.242,0,1,1,12.726,22.9a2.99,2.99,0,0,1-1.486,5.588ZM9.829,26.219l.4.371a1.492,1.492,0,1,0,1.5-2.5l-.517-.182.023-.635a3.751,3.751,0,1,0-1.886,3.223Z" transform="translate(401.762 1100.501)" fill="#407c1e"/>
      <path id="Path_350" data-name="Path 350" d="M23.993,12.737A4.5,4.5,0,0,1,19.5,8.243a3.993,3.993,0,0,1,.02-.4A2.963,2.963,0,0,1,18,5.246a3,3,0,0,1,3-3,2.963,2.963,0,0,1,2.6,1.518c.136-.013.268-.02.4-.02a4.495,4.495,0,1,1,0,8.989ZM21,3.748a1.5,1.5,0,0,0-1.5,1.5,1.483,1.483,0,0,0,1.071,1.425l.676.2-.161.687a3.036,3.036,0,1,0,2.225-2.227l-.686.16-.2-.674A1.484,1.484,0,0,0,21,3.748Z" transform="translate(396.5 1105.763)" fill="#407c1e"/>
    </g>
  </g>
</svg>
