<svg xmlns="http://www.w3.org/2000/svg" width="97" height="96" viewBox="0 0 97 96">
  <g id="Group_1811" data-name="Group 1811" transform="translate(-132 -287)">
    <g id="Group_1810" data-name="Group 1810" transform="translate(132 287)">
      <rect id="Rectangle_1293" data-name="Rectangle 1293" width="97" height="96" rx="10" fill="#407c1e" opacity="0.15"/>
      <text id="Cooker_Hood" data-name="Cooker Hood" transform="translate(44 73)" fill="#407c1e" font-size="8" font-family="ArialMT, Arial"><tspan x="-23" y="0">Cooker Hood</tspan></text>
      <ellipse id="Ellipse_266" data-name="Ellipse 266" cx="21" cy="20" rx="21" ry="20" transform="translate(28 19)" fill="#fff"/>
      <g id="Group_1805" data-name="Group 1805" transform="translate(33.037 25.69)">
        <path id="Path_800" data-name="Path 800" d="M-2904.462-736.835h.358c2.921,0,5.841,0,8.762-.007.317,0,.4.08.4.4-.012,3.454-.007,6.908-.007,10.362,0,.387-.051.445-.423.445q-4.333,0-8.667,0c-.372,0-.427-.06-.427-.44q0-5.15,0-10.3Z" transform="translate(2915.344 736.842)" fill="#407c1e"/>
        <path id="Path_801" data-name="Path 801" d="M-2930.315-691.26h4.3c.4,0,.453.057.46.449.005.27-.073.613.062.788.117.151.481.113.737.153a37.484,37.484,0,0,1,9.678,2.846,1.366,1.366,0,0,1,.169.082c.187.117.3.27.191.5a.349.349,0,0,1-.5.171c-.481-.2-.958-.417-1.442-.612s-.979-.363-1.464-.559a.271.271,0,0,0-.377.1,1.686,1.686,0,0,1-1.593.7q-10.353-.036-20.7-.005a1.224,1.224,0,0,1-1.14-.5.573.573,0,0,0-.821-.2c-.794.347-1.6.66-2.406.986-.068.028-.135.056-.2.086a.363.363,0,0,1-.548-.181c-.1-.24.032-.405.249-.5.781-.326,1.557-.665,2.348-.964a36.556,36.556,0,0,1,8.033-2.022.326.326,0,0,0,.208-.221,3.9,3.9,0,0,0,.012-.6c0-.451.042-.492.478-.492Zm1.925,3.205c.262,0,.523,0,.786,0,.346,0,.512-.119.513-.362s-.169-.381-.5-.383c-.534,0-1.068.01-1.6-.009a.541.541,0,0,1-.352-.177.926.926,0,0,0-1.489-.014.487.487,0,0,1-.447.2q-.8-.011-1.6,0c-.242,0-.442.092-.437.38s.186.368.441.366c.534,0,1.068.006,1.6,0a.461.461,0,0,1,.439.213.865.865,0,0,0,1.341.108.9.9,0,0,1,.87-.319C-2928.683-688.05-2928.536-688.055-2928.39-688.055Z" transform="translate(2945.949 703.216)" fill="#407c1e"/>
        <path id="Path_802" data-name="Path 802" d="M-2902.673-662.306a2.437,2.437,0,0,1-.524,1.315c-.186.265-.383.523-.581.779a1.14,1.14,0,0,0-.04,1.4c.208.337.456.649.692.968.221.3.221.553-.01.749a.5.5,0,0,1-.759-.135c-.273-.356-.547-.714-.788-1.092a2.123,2.123,0,0,1,.119-2.491c.2-.278.411-.553.612-.833a1.148,1.148,0,0,0,.012-1.5c-.159-.206-.334-.4-.5-.6a.471.471,0,0,1,0-.631.46.46,0,0,1,.623-.106A3.149,3.149,0,0,1-2902.673-662.306Z" transform="translate(2915.762 683.519)" fill="#407c1e"/>
        <path id="Path_803" data-name="Path 803" d="M-2874.475-662.464a2.686,2.686,0,0,1-.606,1.58c-.157.221-.331.431-.489.652a1.128,1.128,0,0,0-.014,1.474c.211.311.439.611.663.912a.523.523,0,0,1-.028.755.49.49,0,0,1-.718-.112,4.852,4.852,0,0,1-1.09-1.806,1.941,1.941,0,0,1,.263-1.616c.236-.345.487-.679.734-1.016a1.2,1.2,0,0,0-.029-1.581c-.141-.181-.3-.351-.443-.527a.458.458,0,0,1,0-.652.451.451,0,0,1,.624-.082A3.128,3.128,0,0,1-2874.475-662.464Z" transform="translate(2894.954 683.528)" fill="#407c1e"/>
        <path id="Path_804" data-name="Path 804" d="M-2888.589-662.692a2.72,2.72,0,0,1-.577,1.759c-.17.238-.354.466-.523.7a1.137,1.137,0,0,0-.007,1.45c.213.31.437.612.662.913a.511.511,0,0,1-.014.752.5.5,0,0,1-.739-.12,5.089,5.089,0,0,1-1.068-1.752,2.016,2.016,0,0,1,.352-1.807c.193-.259.4-.512.577-.782a1.28,1.28,0,0,0-.127-1.884c-.1-.111-.208-.208-.3-.324a.454.454,0,0,1,.029-.651.433.433,0,0,1,.625-.052A2.992,2.992,0,0,1-2888.589-662.692Z" transform="translate(2905.363 683.543)" fill="#407c1e"/>
      </g>
    </g>
  </g>
</svg>
