<svg xmlns="http://www.w3.org/2000/svg" width="97" height="96" viewBox="0 0 97 96">
  <g id="Group_1893" data-name="Group 1893" transform="translate(-39 -545)">
    <g id="Group_1892" data-name="Group 1892" transform="translate(39 545)">
      <rect id="Rectangle_1293" data-name="Rectangle 1293" width="97" height="96" rx="10" fill="#407c1e" opacity="0.15"/>
      <text id="Exhaust_Fan" data-name="Exhaust Fan" transform="translate(44 73)" fill="#407c1e" font-size="8" font-family="ArialMT, Arial"><tspan x="-22" y="0">Exhaust Fan</tspan></text>
      <ellipse id="Ellipse_266" data-name="Ellipse 266" cx="20.5" cy="20" rx="20.5" ry="20" transform="translate(28 19)" fill="#fff"/>
      <path id="cooling" d="M20.34,23.228H2.918a2.8,2.8,0,0,1-2.053-.851,2.792,2.792,0,0,1-.85-2.053V2.9A2.8,2.8,0,0,1,.866.851,2.794,2.794,0,0,1,2.919,0H20.34a2.8,2.8,0,0,1,2.053.851A2.794,2.794,0,0,1,23.244,2.9V20.325a2.9,2.9,0,0,1-2.9,2.9ZM2.93,21.776a1.37,1.37,0,0,0,1.02-.431,1.43,1.43,0,0,0,.42-1.032,1.384,1.384,0,0,0-.42-1.02,1.408,1.408,0,0,0-1.032-.42,1.4,1.4,0,0,0-1.032.42,1.387,1.387,0,0,0-.42,1.02,1.471,1.471,0,0,0,1.463,1.463ZM2.918,1.452a1.4,1.4,0,0,0-1.032.42,1.389,1.389,0,0,0-.42,1.02,1.428,1.428,0,0,0,.42,1.032,1.382,1.382,0,0,0,1.032.431A1.388,1.388,0,0,0,3.95,3.924a1.425,1.425,0,0,0,.42-1.032,1.386,1.386,0,0,0-.42-1.02A1.41,1.41,0,0,0,2.918,1.452ZM11.629,2.9A8.529,8.529,0,0,0,7.262,4.072,8.648,8.648,0,0,0,4.087,7.248a8.744,8.744,0,0,0,0,8.733,8.648,8.648,0,0,0,3.176,3.176,8.744,8.744,0,0,0,8.733,0,8.648,8.648,0,0,0,3.176-3.176,8.744,8.744,0,0,0,0-8.733A8.648,8.648,0,0,0,16,4.072,8.529,8.529,0,0,0,11.629,2.9ZM20.34,1.452a1.434,1.434,0,0,0-1.452,1.44,1.428,1.428,0,0,0,.42,1.032,1.452,1.452,0,0,0,2.064,0,1.425,1.425,0,0,0,.42-1.032,1.386,1.386,0,0,0-.42-1.02,1.41,1.41,0,0,0-1.032-.42Zm0,17.421a1.434,1.434,0,0,0-1.452,1.44,1.428,1.428,0,0,0,.42,1.032,1.452,1.452,0,0,0,2.064,0,1.425,1.425,0,0,0,.42-1.032,1.386,1.386,0,0,0-.42-1.02A1.41,1.41,0,0,0,20.34,18.873Zm-5.807-7.259a2.881,2.881,0,0,1-.34,1.338,11.346,11.346,0,0,1,2.393.76,5.431,5.431,0,0,1,1.577.987,6.523,6.523,0,0,1-3.63,3.448,10.626,10.626,0,0,0-.261-2.609,3.921,3.921,0,0,0-.851-1.656,2.794,2.794,0,0,1-1.792.635,2.881,2.881,0,0,1-1.338-.34,11.346,11.346,0,0,1-.76,2.393,5.431,5.431,0,0,1-.987,1.577,6.523,6.523,0,0,1-3.448-3.63A10.626,10.626,0,0,0,7.7,14.257a3.921,3.921,0,0,0,1.656-.851,2.794,2.794,0,0,1-.635-1.792,2.881,2.881,0,0,1,.34-1.338,11.346,11.346,0,0,1-2.393-.76A5.431,5.431,0,0,1,5.1,8.529,6.523,6.523,0,0,1,8.725,5.08a10.626,10.626,0,0,0,.261,2.609,3.921,3.921,0,0,0,.851,1.656,2.794,2.794,0,0,1,1.792-.635,2.881,2.881,0,0,1,1.338.34,11.346,11.346,0,0,1,.76-2.393,5.431,5.431,0,0,1,.987-1.577,6.523,6.523,0,0,1,3.448,3.63,10.626,10.626,0,0,0-2.609.261,3.921,3.921,0,0,0-1.656.851,2.794,2.794,0,0,1,.635,1.792Z" transform="translate(36.492 27.042)" fill="#407c1e"/>
    </g>
  </g>
</svg>
