<svg xmlns="http://www.w3.org/2000/svg" width="42" height="58.525" viewBox="0 0 42 58.525">
  <g id="Group_1385" data-name="Group 1385" transform="translate(-83 -280.215)">
    <g id="Group_1384" data-name="Group 1384">
      <path id="__TEMP__SVG__" d="M12.834,19.392A7.462,7.462,0,0,0,7.1,22.162H4.2a4.962,4.962,0,0,1-2.986-.876A2.965,2.965,0,0,1,0,18.721q0-7.64,2.684-7.64a4.149,4.149,0,0,1,.942.455,14.267,14.267,0,0,0,2.11.92,7.591,7.591,0,0,0,2.575.465,8.7,8.7,0,0,0,2.879-.5,10.769,10.769,0,0,0-.109,1.429,9.529,9.529,0,0,0,1.753,5.54ZM36.013,33.178a5.393,5.393,0,0,1-1.58,4.1,5.837,5.837,0,0,1-4.2,1.5H11.319a5.834,5.834,0,0,1-4.2-1.5,5.4,5.4,0,0,1-1.58-4.1q0-1.147.076-2.24a22.105,22.105,0,0,1,.3-2.359,18.466,18.466,0,0,1,.573-2.348,11.057,11.057,0,0,1,.93-2.11,7.644,7.644,0,0,1,1.341-1.753,5.627,5.627,0,0,1,1.85-1.158,6.507,6.507,0,0,1,2.414-.433,2.543,2.543,0,0,1,.93.465q.713.465,1.58,1.039a9.507,9.507,0,0,0,2.315,1.039,10.046,10.046,0,0,0,8.158-1.039q.867-.574,1.58-1.039a2.543,2.543,0,0,1,.93-.465,6.5,6.5,0,0,1,2.414.433,5.643,5.643,0,0,1,1.85,1.158,7.6,7.6,0,0,1,1.341,1.753,11.154,11.154,0,0,1,.93,2.11,18.333,18.333,0,0,1,.574,2.348,22.106,22.106,0,0,1,.3,2.359q.076,1.093.076,2.24ZM13.851,5.54a5.341,5.341,0,0,1-1.623,3.918,5.332,5.332,0,0,1-3.918,1.623A5.344,5.344,0,0,1,4.393,9.458,5.336,5.336,0,0,1,2.77,5.54,5.336,5.336,0,0,1,4.393,1.623,5.344,5.344,0,0,1,8.311,0a5.332,5.332,0,0,1,3.918,1.623A5.341,5.341,0,0,1,13.851,5.54Zm15.236,8.311a8.01,8.01,0,0,1-2.434,5.876,8,8,0,0,1-5.876,2.434A8.013,8.013,0,0,1,14.9,19.728a8,8,0,0,1-2.434-5.876A8,8,0,0,1,14.9,7.975,8.013,8.013,0,0,1,20.777,5.54a8,8,0,0,1,5.876,2.434A8.01,8.01,0,0,1,29.087,13.851Zm12.466,4.87a2.967,2.967,0,0,1-1.212,2.565,4.952,4.952,0,0,1-2.986.876h-2.9a7.462,7.462,0,0,0-5.736-2.77,9.529,9.529,0,0,0,1.753-5.54,10.769,10.769,0,0,0-.109-1.429,8.7,8.7,0,0,0,2.879.5,7.6,7.6,0,0,0,2.575-.465,14.2,14.2,0,0,0,2.11-.92,4.116,4.116,0,0,1,.942-.455q2.684,0,2.684,7.64ZM38.783,5.54A5.341,5.341,0,0,1,37.16,9.458a5.54,5.54,0,0,1-7.835,0A5.336,5.336,0,0,1,27.7,5.54a5.336,5.336,0,0,1,1.623-3.918,5.54,5.54,0,0,1,7.835,0A5.341,5.341,0,0,1,38.783,5.54Z" transform="translate(83 280.215)" fill="#737475"/>
      <text id="Groups" transform="translate(83 335.74)" fill="#737475" font-size="12" font-family="HelveticaNeue-Bold, Helvetica Neue" font-weight="700"><tspan x="0" y="0">Groups</tspan></text>
    </g>
  </g>
</svg>
