<svg xmlns="http://www.w3.org/2000/svg" width="22.175" height="20.975" viewBox="0 0 22.175 20.975">
  <path id="key" d="M10.962,5.059a2.52,2.52,0,0,0-2.53-2.53A2.52,2.52,0,0,0,5.9,5.059a2.579,2.579,0,0,0,.25,1.094A2.579,2.579,0,0,0,5.058,5.9a2.52,2.52,0,0,0-2.53,2.53,2.52,2.52,0,0,0,2.53,2.53,2.52,2.52,0,0,0,2.53-2.53,2.579,2.579,0,0,0-.25-1.094,2.579,2.579,0,0,0,1.094.25,2.52,2.52,0,0,0,2.53-2.53Zm11.213,9.275q0,.224-.646.87t-.87.646a.761.761,0,0,1-.376-.211q-.257-.211-.481-.435t-.507-.527q-.283-.3-.323-.343L17.708,15.6l2.9,2.9a1.219,1.219,0,0,1,.369.9,1.793,1.793,0,0,1-1.581,1.581,1.219,1.219,0,0,1-.9-.369L9.658,11.766a7.956,7.956,0,0,1-4.809,1.726,4.733,4.733,0,0,1-3.5-1.351A4.731,4.731,0,0,1,0,8.644,7.729,7.729,0,0,1,1.252,4.519,10.015,10.015,0,0,1,4.519,1.252,7.734,7.734,0,0,1,8.644,0a4.733,4.733,0,0,1,3.5,1.351,4.731,4.731,0,0,1,1.35,3.5,7.956,7.956,0,0,1-1.726,4.809l4.677,4.677,1.265-1.265q-.04-.04-.343-.323t-.527-.507q-.224-.224-.435-.481a.768.768,0,0,1-.211-.376q0-.224.646-.87t.87-.646a.416.416,0,0,1,.3.132q.079.079.606.587T19.7,11.634q.554.54,1.14,1.133t.962,1.028q.376.435.376.54Z" fill="#407c1e"/>
</svg>
