<svg id="pending-filled" xmlns="http://www.w3.org/2000/svg" width="29.471" height="29.471" viewBox="0 0 29.471 29.471">
  <path id="Path_401" data-name="Path 401" d="M16.985,2.25A14.735,14.735,0,1,0,31.721,16.985,14.735,14.735,0,0,0,16.985,2.25ZM8.565,19.09a2.105,2.105,0,1,1,2.105-2.105A2.105,2.105,0,0,1,8.565,19.09Zm8.42,0a2.105,2.105,0,1,1,2.105-2.105A2.105,2.105,0,0,1,16.985,19.09Zm8.42,0a2.105,2.105,0,1,1,2.105-2.105A2.105,2.105,0,0,1,25.406,19.09Z" transform="translate(-2.25 -2.25)" fill="#407c1e"/>
  <path id="Path_402" data-name="Path 402" d="M10.96,17.855A2.105,2.105,0,1,1,8.855,15.75,2.105,2.105,0,0,1,10.96,17.855Z" transform="translate(-2.54 -3.12)" fill="none"/>
  <path id="Path_403" data-name="Path 403" d="M19.96,17.855a2.105,2.105,0,1,1-2.105-2.105A2.105,2.105,0,0,1,19.96,17.855Z" transform="translate(-3.12 -3.12)" fill="none"/>
  <path id="Path_404" data-name="Path 404" d="M28.96,17.855a2.105,2.105,0,1,1-2.105-2.105A2.105,2.105,0,0,1,28.96,17.855Z" transform="translate(-3.7 -3.12)" fill="none"/>
</svg>
