<svg xmlns="http://www.w3.org/2000/svg" width="20.385" height="20.975" viewBox="0 0 20.385 20.975">
  <g id="__TEMP__SVG__" transform="translate(0)">
    <path id="Path_339" data-name="Path 339" d="M17.644,15.22A5.664,5.664,0,0,1,15.5,19.061a3.8,3.8,0,0,1-1.66,1.853,1.89,1.89,0,0,1-3.662,0,3.8,3.8,0,0,1-1.66-1.853,5.664,5.664,0,0,1-2.145-3.825,2.837,2.837,0,0,1-3.885-4.083l3.87-4.611a5.671,5.671,0,0,1,11.3-.032l3.894,4.641a2.836,2.836,0,0,1-3.905,4.068Zm-2.2-2.519L13.86,10.81H10.179L8.593,12.7Zm2.234-.28.975,1.162A.945.945,0,0,0,20.1,12.367L17.679,9.48Zm-1.89-3.5V7.03a3.781,3.781,0,1,0-7.561,0V8.92ZM5.384,13.583l.951-1.134V9.507l-2.4,2.861a.945.945,0,0,0,1.449,1.214Zm6.623,4.79a3.781,3.781,0,0,1-3.781-3.781h7.561A3.781,3.781,0,0,1,12.007,18.372Z" transform="translate(-1.83 -1.358)" fill="#407c1e"/>
  </g>
</svg>
