<svg xmlns="http://www.w3.org/2000/svg" width="27.809" height="27.809" viewBox="0 0 27.809 27.809">
  <path id="powerplug" d="M10.488,16.94v2.724a1.251,1.251,0,0,1-.389.932,1.286,1.286,0,0,1-.932.379,1.293,1.293,0,0,1-1.3-1.311V16.94a9.207,9.207,0,0,1-3.994-1.6,9.068,9.068,0,0,1-2.837-3.237A8.957,8.957,0,0,1,0,7.866a1.277,1.277,0,0,1,.379-.922,1.25,1.25,0,0,1,.932-.389H17.042a1.329,1.329,0,0,1,1.311,1.311,8.973,8.973,0,0,1-1.034,4.24,9.152,9.152,0,0,1-2.837,3.247A8.94,8.94,0,0,1,10.488,16.94Zm2.622-11.7V1.311a1.277,1.277,0,0,1,.379-.922A1.238,1.238,0,0,1,14.41,0a1.272,1.272,0,0,1,.932.389,1.26,1.26,0,0,1,.389.922V5.244Zm-10.488,0V1.311A1.277,1.277,0,0,1,3,.389,1.238,1.238,0,0,1,3.922,0a1.272,1.272,0,0,1,.932.389,1.26,1.26,0,0,1,.389.922V5.244Z" transform="translate(14.832) rotate(45)" fill="#407c1e"/>
</svg>
