<svg xmlns="http://www.w3.org/2000/svg" width="60" height="54.71" viewBox="0 0 60 54.71">
  <g id="Group_1401" data-name="Group 1401" transform="translate(-74 -448.236)">
    <g id="Group_1400" data-name="Group 1400">
      <text id="Properties" transform="translate(74 499.945)" fill="#737475" font-size="12" font-family="HelveticaNeue-Bold, Helvetica Neue" font-weight="700"><tspan x="0" y="0">Properties</tspan></text>
      <g id="Group_1399" data-name="Group 1399" transform="translate(-2816.411 562.462)">
        <g id="Group_1398" data-name="Group 1398">
          <g id="Group_1397" data-name="Group 1397">
            <g id="home" transform="translate(2892.737 -112.25)">
              <path id="Path_355" data-name="Path 355" d="M18.607,7.123a.572.572,0,0,0-.79,0L4.672,19.682A.572.572,0,0,0,4.5,20.1l0,11.786a2.285,2.285,0,0,0,2.285,2.285H13.64a1.142,1.142,0,0,0,1.142-1.142V23.313a.572.572,0,0,1,.572-.572h5.712a.572.572,0,0,1,.572.572v9.712a1.142,1.142,0,0,0,1.142,1.142H29.64a2.285,2.285,0,0,0,2.285-2.285V20.1a.572.572,0,0,0-.177-.413Z" transform="translate(0.052 -1.177)" fill="#737475"/>
              <path id="Path_356" data-name="Path 356" d="M35.036,17.4,29.7,12.289V4.535a1.142,1.142,0,0,0-1.142-1.142H25.125a1.142,1.142,0,0,0-1.142,1.142V6.82L19.848,2.865a2.343,2.343,0,0,0-3.166,0L1.494,17.4A1.165,1.165,0,0,0,1.4,19a1.142,1.142,0,0,0,1.654.075L17.869,4.912a.572.572,0,0,1,.79,0L33.477,19.071a1.142,1.142,0,0,0,1.613-.031,1.171,1.171,0,0,0-.054-1.64Z" transform="translate(0)" fill="#737475"/>
            </g>
            <path id="Path_361" data-name="Path 361" d="M2826.64-108.91l5.317-5.317,5.961,5.588v-5.588h5.671v10.486l6.927,6.927h-4.658v14.8h-10.291v-11.45H2832.6a1.3,1.3,0,0,0-.391-1.51c-.782-.576-5.4-5.189-5.4-5.189v-7.794a2.385,2.385,0,0,0-.169-.882C2826.468-109.2,2826.64-108.91,2826.64-108.91Z" transform="translate(96)" fill="#737475"/>
          </g>
        </g>
      </g>
    </g>
  </g>
</svg>
