<svg id="tools" xmlns="http://www.w3.org/2000/svg" width="20.972" height="20.975" viewBox="0 0 20.972 20.975">
  <path id="Path_56" data-name="Path 56" d="M0,1.3,1.3,0,5.32,2.868a1.3,1.3,0,0,1,.546,1.063v.092a1.3,1.3,0,0,0,.382.923l7.44,7.44,1.192-.4a1.3,1.3,0,0,1,1.334.315l4.375,4.375a1.3,1.3,0,0,1,0,1.843l-2.068,2.068a1.3,1.3,0,0,1-1.843,0L12.3,16.214a1.3,1.3,0,0,1-.315-1.334l.4-1.191-7.44-7.44a1.3,1.3,0,0,0-.922-.382H3.93a1.3,1.3,0,0,1-1.061-.546ZM14.8,13.88a.653.653,0,0,0-.923.923l3.911,3.911a.653.653,0,1,0,.923-.923L14.8,13.88Z" transform="translate(0 0.004)" fill="#407c1e"/>
  <path id="Path_57" data-name="Path 57" d="M20.727,2.9a3.915,3.915,0,0,1-4.8,4.79L7.665,15.837a3.911,3.911,0,1,1-2.643-2.643l8.151-8.267a3.911,3.911,0,0,1,4.791-4.8L15.172,2.92l.474,2.292,2.29.475L20.727,2.9ZM3.3,14.654l.617-.316.614.315.69.034.374.58.58.374.034.69.315.615L6.2,17.56l-.034.69-.58.374-.374.58-.69.034-.615.316L3.3,19.238l-.69-.034-.374-.58-.58-.374-.034-.69L1.3,16.945l.315-.614.034-.69.58-.374.374-.58.69-.034Z" transform="translate(-0.001 0.007)" fill="#407c1e"/>
</svg>
